#tb 0: 1/25
#media_type 0: video
#codec_id 0: rawvideo
#dimensions 0: 352x288
#sar 0: 0/1
0,          0,          0,        1,   152064, 0x29cef5a3
0,          1,          1,        1,   152064, 0x0c06e264
0,          2,          2,        1,   152064, 0x7a7367d8
0,          3,          3,        1,   152064, 0x22fa2bb0
0,          4,          4,        1,   152064, 0x40ce8aa8
0,          5,          5,        1,   152064, 0x99ea2b37
0,          6,          6,        1,   152064, 0x50c605d2
0,          7,          7,        1,   152064, 0xf5882787
0,          8,          8,        1,   152064, 0xbb3d26f7
0,          9,          9,        1,   152064, 0x878bc487
0,         10,         10,        1,   152064, 0x3cff7c7f
0,         11,         11,        1,   152064, 0x158c2f02
0,         12,         12,        1,   152064, 0x31c05d63
0,         13,         13,        1,   152064, 0x68d44479
0,         14,         14,        1,   152064, 0xf679271d
0,         15,         15,        1,   152064, 0x85ba91a8
0,         16,         16,        1,   152064, 0x40b507da
0,         17,         17,        1,   152064, 0xc095f824
0,         18,         18,        1,   152064, 0xf433de19
0,         19,         19,        1,   152064, 0xb60ba3d0
0,         20,         20,        1,   152064, 0x3adc70a2
0,         21,         21,        1,   152064, 0x9681bf6d
0,         22,         22,        1,   152064, 0xc3879814
0,         23,         23,        1,   152064, 0x3c50e56c
0,         24,         24,        1,   152064, 0x684dafb9
0,         25,         25,        1,   152064, 0x64bc2c21
0,         26,         26,        1,   152064, 0x79376e17
0,         27,         27,        1,   152064, 0x4338ce37
0,         28,         28,        1,   152064, 0xa723b2c7
0,         29,         29,        1,   152064, 0x5e4b8364
0,         30,         30,        1,   152064, 0x26d99c2c
0,         31,         31,        1,   152064, 0xb22df5f8
0,         32,         32,        1,   152064, 0xdd5f466d
0,         33,         33,        1,   152064, 0xa676c8c2
0,         34,         34,        1,   152064, 0x5c39ee12
0,         35,         35,        1,   152064, 0xe0fd67bd
0,         36,         36,        1,   152064, 0x9ad79d38
0,         37,         37,        1,   152064, 0x88e77b76
0,         38,         38,        1,   152064, 0xa00fcbc0
0,         39,         39,        1,   152064, 0x2970ba7d
0,         40,         40,        1,   152064, 0x312e3fc4
0,         41,         41,        1,   152064, 0xc683480c
0,         42,         42,        1,   152064, 0x290d4123
0,         43,         43,        1,   152064, 0xa74aa3a9
0,         44,         44,        1,   152064, 0xe579aef6
0,         45,         45,        1,   152064, 0x672449a4
0,         46,         46,        1,   152064, 0x232a6be1
0,         47,         47,        1,   152064, 0x7fe3c05a
0,         48,         48,        1,   152064, 0x4e33e5fc
0,         49,         49,        1,   152064, 0xa46855de
